<svg xmlns="http://www.w3.org/2000/svg" version="1.1" xmlns:xlink="http://www.w3.org/1999/xlink" xmlns:svgjs="http://svgjs.dev/svgjs" width="100%" height="100%" viewBox="0 0 1000 600"><rect width="1000" height="600" x="0" y="0" fill="#262223"/><g><rect width="333.3333333333333" height="333.3333333333333" rx="13.333333333333334" ry="13.333333333333334" y="273.4410048762527" fill="#ddc6b6" transform="matrix(0.49757426442577557,0,0,0.49757426442577557,0,81.01374796505584)" x="251.2187805175781"/><path d="M422.1055045366132 515.1076766574445L422.1055045366132 515.1076766574445Q408.8464512361172 515.1076766574445 399.0414370307084 512.0993200262396Q389.208567671307 509.09096339503463 382.7740270990074 501.1800996611252Q376.3673416807005 493.24138077322317 373.247564433525 478.4224388491394Q370.1556423403421 463.575641771063 370.1556423403421 439.7037747993717L370.1556423403421 439.7037747993717Q370.1556423403421 417.25252068130493 373.3589850494955 402.71213029714755Q376.562327758649 388.1717399129902 383.08043379292644 379.9266143311691Q389.59853982720387 371.7093439033407 399.6263952645538 368.3945805782167Q409.6542507019037 365.1076724070853 423.3032761582967 365.1076724070853L423.3032761582967 365.1076724070853Q429.5149754986551 365.1076724070853 437.1472876926381 365.8876167188792Q444.7517447326284 366.6954161846657 452.189070848663 367.8096223443713Q459.59854181070483 368.8959733500842 465.6152550731148 370.51157228165727L465.6152550731148 370.51157228165727L465.6152550731148 382.35001272852867Q462.2169262860129 381.7371993406906 455.9773717916618 381.1522411068452Q449.7656724513034 380.53942771900716 441.854808717394 380.0380349471397Q433.916089829492 379.53664217527216 425.69881940166357 379.53664217527216L425.69881940166357 379.53664217527216Q415.08600573046823 379.53664217527216 407.4536935364853 381.9321854186391Q399.82138134250226 384.35558381599867 395.11386031774634 390.8736898502761Q390.40633929299037 397.3917958845536 388.2057821275719 409.230236331425Q386.0052249621535 421.04082162430376 386.0052249621535 439.89876087732017L386.0052249621535 439.89876087732017Q386.0052249621535 458.95168620828497 388.0943615116014 471.09653334907546Q390.2113532150419 483.21352533587327 394.8074536238273 489.6480659081728Q399.4314091866053 496.0547513264797 406.8408801486472 498.4781497238393Q414.2782062646817 500.8736929672062 425.3088472457667 500.8736929672062L425.3088472457667 500.8736929672062Q440.35063040179153 500.8736929672062 449.9606585292519 500.0658935014197Q459.59854181070483 499.2580940356331 465.6152550731148 498.2553084918981L465.6152550731148 498.2553084918981L465.6152550731148 510.288735016718Q459.59854181070483 511.7093478703426 452.27263631064085 512.7956988760554Q444.9467308105769 513.9099050357611 437.230853154616 514.5227184235991Q429.5149754986551 515.1076766574445 422.1055045366132 515.1076766574445Z " fill="#262223" transform="matrix(0.49757426442577557,0,0,0.49757426442577557,0,81.01374796505584)"/><path d="M706.7396139996844 480.4618413131601L706.7396139996844 480.4618413131601Q696.8229473330177 480.4618413131601 689.4896139996844 478.2118413131601Q682.1354473330177 475.9618413131601 677.3229473330177 470.0451746464934Q672.5312806663511 464.1076746464934 670.1979473330177 453.0243413131601Q667.8854473330177 441.9201746464934 667.8854473330177 424.06600797982674L667.8854473330177 424.06600797982674Q667.8854473330177 407.27434131316005 670.2812806663511 396.3993413131601Q672.6771139996844 385.5243413131601 677.5521139996844 379.3576746464934Q682.4271139996844 373.2118413131601 689.9271139996844 370.7326746464934Q697.4271139996844 368.27434131316005 707.6354473330177 368.27434131316005L707.6354473330177 368.27434131316005Q712.2812806663511 368.27434131316005 717.9896139996844 368.8576746464934Q723.6771139996844 369.46184131316005 729.2396139996844 370.2951746464934Q734.7812806663511 371.1076746464934 739.2812806663511 372.3160079798268L739.2812806663511 372.3160079798268L739.2812806663511 381.1701746464934Q736.7396139996844 380.71184131316005 732.0729473330177 380.2743413131601Q727.4271139996844 379.81600797982674 721.5104473330177 379.44100797982674Q715.5729473330177 379.06600797982674 709.4271139996844 379.06600797982674L709.4271139996844 379.06600797982674Q701.4896139996844 379.06600797982674 695.7812806663511 380.8576746464934Q690.0729473330177 382.6701746464934 686.5521139996844 387.5451746464934Q683.0312806663511 392.4201746464934 681.3854473330177 401.2743413131601Q679.7396139996844 410.1076746464934 679.7396139996844 424.2118413131601L679.7396139996844 424.2118413131601Q679.7396139996844 438.46184131316005 681.3021139996844 447.5451746464934Q682.8854473330177 456.6076746464934 686.3229473330177 461.4201746464934Q689.7812806663511 466.2118413131601 695.3229473330177 468.0243413131601Q700.8854473330177 469.81600797982674 709.1354473330177 469.81600797982674L709.1354473330177 469.81600797982674Q720.3854473330177 469.81600797982674 727.5729473330177 469.2118413131601Q734.7812806663511 468.6076746464934 739.2812806663511 467.8576746464934L739.2812806663511 467.8576746464934L739.2812806663511 476.8576746464934Q734.7812806663511 477.9201746464934 729.3021139996844 478.7326746464934Q723.8229473330177 479.56600797982674 718.0521139996844 480.0243413131601Q712.2812806663511 480.4618413131601 706.7396139996844 480.4618413131601ZM773.1771139996844 480.4618413131601L773.1771139996844 480.4618413131601Q764.3229473330177 480.4618413131601 758.6354473330177 475.21184131316005Q752.9271139996844 469.9618413131601 752.9271139996844 460.3576746464934L752.9271139996844 460.3576746464934L752.9271139996844 454.6701746464934Q752.9271139996844 445.2118413131601 759.1562806663511 439.3576746464934Q765.3854473330177 433.5243413131601 777.9896139996844 433.5243413131601L777.9896139996844 433.5243413131601L805.1354473330177 433.5243413131601L805.1354473330177 423.6076746464934Q805.1354473330177 418.6701746464934 803.4062806663511 415.14934131316005Q801.6771139996844 411.6076746464934 797.2604473330177 409.6701746464934Q792.8229473330177 407.71184131316005 784.4271139996844 407.71184131316005L784.4271139996844 407.71184131316005L759.5312806663511 407.71184131316005L759.5312806663511 400.6701746464934Q764.7812806663511 399.7743413131601 771.7604473330177 399.0243413131601Q778.7396139996844 398.27434131316005 788.1771139996844 398.27434131316005L788.1771139996844 398.27434131316005Q797.9271139996844 398.1076746464934 804.3854473330177 400.6701746464934Q810.8229473330177 403.2118413131601 813.9062806663511 408.69100797982674Q816.9896139996844 414.1701746464934 816.9896139996844 423.0243413131601L816.9896139996844 423.0243413131601L816.9896139996844 479.56600797982674L807.8229473330177 479.56600797982674L805.5729473330177 470.4201746464934Q804.9896139996844 471.0243413131601 801.9062806663511 472.5243413131601Q798.8229473330177 474.0243413131601 794.1146139996844 475.8993413131601Q789.3854473330177 477.7743413131601 783.9062806663511 479.1076746464934Q778.4271139996844 480.4618413131601 773.1771139996844 480.4618413131601ZM778.1354473330177 471.6076746464934L778.1354473330177 471.6076746464934Q780.8229473330177 471.7743413131601 784.2812806663511 471.0243413131601Q787.7396139996844 470.2743413131601 791.3229473330177 469.2951746464934Q794.9271139996844 468.31600797982674 798.0104473330177 467.2743413131601Q801.0729473330177 466.2118413131601 803.0312806663511 465.4618413131601Q804.9896139996844 464.7118413131601 805.1354473330177 464.7118413131601L805.1354473330177 464.7118413131601L805.1354473330177 439.5243413131601L780.6771139996844 440.56600797982674Q772.1354473330177 440.8576746464934 768.4479473330177 444.7743413131601Q764.7812806663511 448.6701746464934 764.7812806663511 454.81600797982674L764.7812806663511 454.81600797982674L764.7812806663511 458.4201746464934Q764.7812806663511 463.2118413131601 766.8021139996844 466.1493413131601Q768.8229473330177 469.06600797982674 771.9062806663511 470.2743413131601Q774.9896139996844 471.4618413131601 778.1354473330177 471.6076746464934ZM870.5312806663511 479.7118413131601L860.3229473330177 479.7118413131601Q853.4271139996844 479.7118413131601 848.7812806663511 477.2326746464934Q844.1354473330177 474.7743413131601 841.7396139996844 469.1493413131601Q839.3229473330177 463.5243413131601 839.3229473330177 453.9201746464934L839.3229473330177 453.9201746464934L839.3229473330177 365.1076746464934L851.1771139996844 365.1076746464934L851.1771139996844 452.4201746464934Q851.1771139996844 459.6076746464934 852.5312806663511 463.2951746464934Q853.8854473330177 466.9618413131601 856.4271139996844 468.3993413131601Q858.9896139996844 469.81600797982674 862.4271139996844 470.2743413131601L862.4271139996844 470.2743413131601L870.5312806663511 471.1701746464934L870.5312806663511 479.7118413131601ZM914.0312806663511 480.4618413131601L914.0312806663511 480.4618413131601Q901.4271139996844 480.4618413131601 894.1562806663511 476.7118413131601Q886.8854473330177 472.9618413131601 883.7396139996844 463.9618413131601Q880.5729473330177 454.9618413131601 880.5729473330177 439.3576746464934L880.5729473330177 439.3576746464934Q880.5729473330177 423.4618413131601 883.8021139996844 414.5451746464934Q887.0312806663511 405.6076746464934 894.3854473330177 402.0243413131601Q901.7396139996844 398.4201746464934 914.1771139996844 398.4201746464934L914.1771139996844 398.4201746464934Q924.8229473330177 398.4201746464934 931.5104473330177 400.8160079798268Q938.1771139996844 403.2118413131601 941.4062806663511 408.9826746464934Q944.6354473330177 414.7743413131601 944.6354473330177 424.9618413131601L944.6354473330177 424.9618413131601Q944.6354473330177 432.0243413131601 941.8646139996844 436.2951746464934Q939.0729473330177 440.56600797982674 933.9062806663511 442.44100797982674Q928.7396139996844 444.31600797982674 921.6771139996844 444.31600797982674L921.6771139996844 444.31600797982674L892.4271139996844 444.31600797982674Q892.5729473330177 454.06600797982674 894.5312806663511 459.9826746464934Q896.4896139996844 465.9201746464934 901.6562806663511 468.5451746464934Q906.8229473330177 471.1701746464934 916.8854473330177 471.1701746464934L916.8854473330177 471.1701746464934L942.6771139996844 471.1701746464934L942.6771139996844 478.3576746464934Q935.7812806663511 479.2743413131601 929.1771139996844 479.8576746464934Q922.5729473330177 480.4618413131601 914.0312806663511 480.4618413131601ZM892.2812806663511 436.5243413131601L892.2812806663511 436.5243413131601L920.7812806663511 436.5243413131601Q927.5312806663511 436.5243413131601 930.7604473330179 434.0451746464934Q933.9896139996844 431.56600797982674 933.9896139996844 425.1076746464934L933.9896139996844 425.1076746464934Q933.9896139996844 418.2118413131601 931.9479473330177 414.3993413131601Q929.9271139996844 410.5660079798268 925.6562806663511 408.9826746464934Q921.3854473330179 407.4201746464934 914.1771139996844 407.4201746464934L914.1771139996844 407.4201746464934Q905.7812806663511 407.4201746464934 900.9896139996844 409.8993413131601Q896.1771139996844 412.3576746464934 894.2396139996844 418.6701746464934Q892.2812806663511 424.9618413131601 892.2812806663511 436.5243413131601ZM976.4271139996844 479.56600797982674L964.5729473330177 479.56600797982674L964.5729473330177 399.46184131316005L973.8854473330177 399.46184131316005L976.4271139996844 408.31600797982674Q982.1354473330179 404.2743413131601 989.7812806663511 401.1910079798268Q997.4271139996844 398.1076746464934 1005.6771139996844 398.1076746464934L1005.6771139996844 398.1076746464934Q1014.5312806663511 398.1076746464934 1019.9271139996844 401.8576746464934Q1025.322947333018 405.6076746464934 1027.885447333018 411.7743413131601Q1030.4271139996845 417.9201746464934 1030.4271139996845 425.1076746464934L1030.4271139996845 425.1076746464934L1030.4271139996845 479.56600797982674L1018.5729473330179 479.56600797982674L1018.5729473330179 426.4618413131601Q1018.5729473330179 421.3576746464934 1016.5521139996845 417.3993413131601Q1014.5312806663511 413.4201746464934 1010.8646139996844 411.1701746464934Q1007.1771139996845 408.9201746464934 1001.7812806663511 408.9201746464934L1001.7812806663511 408.9201746464934Q996.8229473330177 408.9201746464934 992.5521139996844 409.8993413131601Q988.2812806663511 410.8576746464934 984.4479473330177 412.5868413131601Q980.6354473330179 414.31600797982674 976.4271139996844 416.71184131316005L976.4271139996844 416.71184131316005L976.4271139996844 479.56600797982674ZM1078.7396139996845 480.4618413131601L1078.7396139996845 480.4618413131601Q1068.822947333018 480.4618413131601 1062.447947333018 476.19100797982674Q1056.072947333018 471.9201746464934 1053.010447333018 462.9826746464934Q1049.9271139996845 454.06600797982674 1049.9271139996845 440.1076746464934L1049.9271139996845 440.1076746464934Q1049.9271139996845 425.2743413131601 1052.9271139996845 416.0451746464934Q1055.9271139996845 406.81600797982674 1062.531280666351 402.6076746464934Q1069.135447333018 398.4201746464934 1080.2396139996845 398.4201746464934L1080.2396139996845 398.4201746464934Q1086.9896139996845 398.4201746464934 1093.4271139996845 399.9201746464934Q1099.885447333018 401.4201746464934 1104.822947333018 403.2118413131601L1104.822947333018 403.2118413131601L1104.822947333018 365.1076746464934L1116.6771139996845 365.1076746464934L1116.6771139996845 479.56600797982674L1107.072947333018 479.56600797982674L1104.822947333018 471.4618413131601Q1102.572947333018 473.4201746464934 1098.156280666351 475.5243413131601Q1093.7396139996845 477.6076746464934 1088.5521139996845 479.0451746464934Q1083.385447333018 480.4618413131601 1078.7396139996845 480.4618413131601ZM1082.1771139996845 470.7118413131601L1082.1771139996845 470.7118413131601Q1089.072947333018 470.7118413131601 1094.697947333018 468.5451746464934Q1100.322947333018 466.3576746464934 1104.822947333018 463.9618413131601L1104.822947333018 463.9618413131601L1104.822947333018 411.6076746464934Q1099.4271139996845 409.9618413131601 1094.4896139996845 408.83684131316005Q1089.531280666351 407.71184131316005 1083.385447333018 407.71184131316005L1083.385447333018 407.71184131316005Q1075.7396139996845 407.71184131316005 1070.9271139996845 410.5660079798268Q1066.135447333018 413.4201746464934 1063.947947333018 420.3993413131601Q1061.781280666351 427.3576746464934 1061.781280666351 439.6701746464934L1061.781280666351 439.6701746464934Q1061.781280666351 450.7743413131601 1063.8021139996845 457.6701746464934Q1065.822947333018 464.56600797982674 1070.322947333018 467.6493413131601Q1074.822947333018 470.7118413131601 1082.1771139996845 470.7118413131601ZM1154.635447333018 480.4618413131601L1154.635447333018 480.4618413131601Q1145.781280666351 480.4618413131601 1140.072947333018 475.21184131316005Q1134.385447333018 469.9618413131601 1134.385447333018 460.3576746464934L1134.385447333018 460.3576746464934L1134.385447333018 454.6701746464934Q1134.385447333018 445.2118413131601 1140.6146139996845 439.3576746464934Q1146.822947333018 433.5243413131601 1159.4271139996845 433.5243413131601L1159.4271139996845 433.5243413131601L1186.572947333018 433.5243413131601L1186.572947333018 423.6076746464934Q1186.572947333018 418.6701746464934 1184.8646139996845 415.14934131316005Q1183.135447333018 411.6076746464934 1178.697947333018 409.6701746464934Q1174.281280666351 407.71184131316005 1165.885447333018 407.71184131316005L1165.885447333018 407.71184131316005L1140.9896139996845 407.71184131316005L1140.9896139996845 400.6701746464934Q1146.2396139996845 399.7743413131601 1153.197947333018 399.0243413131601Q1160.1771139996845 398.27434131316005 1169.635447333018 398.27434131316005L1169.635447333018 398.27434131316005Q1179.385447333018 398.1076746464934 1185.822947333018 400.6701746464934Q1192.281280666351 403.2118413131601 1195.3646139996845 408.69100797982674Q1198.4271139996845 414.1701746464934 1198.4271139996845 423.0243413131601L1198.4271139996845 423.0243413131601L1198.4271139996845 479.56600797982674L1189.281280666351 479.56600797982674L1187.031280666351 470.4201746464934Q1186.4271139996845 471.0243413131601 1183.3646139996845 472.5243413131601Q1180.281280666351 474.0243413131601 1175.5521139996845 475.8993413131601Q1170.822947333018 477.7743413131601 1165.3646139996845 479.1076746464934Q1159.885447333018 480.4618413131601 1154.635447333018 480.4618413131601ZM1159.572947333018 471.6076746464934L1159.572947333018 471.6076746464934Q1162.281280666351 471.7743413131601 1165.7396139996845 471.0243413131601Q1169.1771139996845 470.2743413131601 1172.781280666351 469.2951746464934Q1176.385447333018 468.31600797982674 1179.447947333018 467.2743413131601Q1182.531280666351 466.2118413131601 1184.4896139996845 465.4618413131601Q1186.4271139996845 464.7118413131601 1186.572947333018 464.7118413131601L1186.572947333018 464.7118413131601L1186.572947333018 439.5243413131601L1162.135447333018 440.56600797982674Q1153.572947333018 440.8576746464934 1149.906280666351 444.7743413131601Q1146.2396139996845 448.6701746464934 1146.2396139996845 454.81600797982674L1146.2396139996845 454.81600797982674L1146.2396139996845 458.4201746464934Q1146.2396139996845 463.2118413131601 1148.260447333018 466.1493413131601Q1150.281280666351 469.06600797982674 1153.3646139996845 470.2743413131601Q1156.4271139996845 471.4618413131601 1159.572947333018 471.6076746464934ZM1232.635447333018 479.56600797982674L1220.781280666351 479.56600797982674L1220.781280666351 399.46184131316005L1229.781280666351 399.46184131316005L1232.635447333018 413.4201746464934Q1238.031280666351 406.9618413131601 1244.697947333018 402.7743413131601Q1251.385447333018 398.56600797982674 1260.072947333018 398.56600797982674L1260.072947333018 398.56600797982674Q1262.1771139996845 398.56600797982674 1264.0521139996845 398.71184131316005Q1265.9271139996845 398.8576746464934 1267.572947333018 399.31600797982674L1267.572947333018 399.31600797982674L1267.572947333018 411.4618413131601Q1265.635447333018 411.1701746464934 1263.385447333018 410.9410079798268Q1261.135447333018 410.7118413131601 1258.885447333018 410.7118413131601L1258.885447333018 410.7118413131601Q1253.322947333018 410.7118413131601 1248.9896139996845 412.06600797982674Q1244.635447333018 413.4201746464934 1240.7396139996845 416.1076746464934Q1236.822947333018 418.81600797982674 1232.635447333018 422.7118413131601L1232.635447333018 422.7118413131601L1232.635447333018 479.56600797982674ZM1313.3229473330175 515.1076746464935L1304.031280666351 515.1076746464935L1314.2396139996845 479.56600797982674Q1310.4896139996845 479.4201746464934 1306.4271139996845 477.7743413131601Q1302.3854473330175 476.1076746464934 1298.9271139996845 472.06600797982674Q1295.4896139996845 468.0243413131601 1293.2396139996845 460.81600797982674L1293.2396139996845 460.81600797982674L1274.031280666351 399.46184131316005L1286.4896139996845 399.46184131316005L1304.322947333018 458.2743413131601Q1305.9896139996845 462.9201746464934 1307.8646139996845 465.1701746464934Q1309.7396139996845 467.4201746464934 1311.6771139996845 468.31600797982674Q1313.6354473330175 469.2118413131601 1315.0521139996845 469.2951746464934Q1316.4896139996845 469.3576746464934 1316.781280666351 469.3576746464934L1316.781280666351 469.3576746464934L1337.3229473330175 399.46184131316005L1349.4896139996845 399.46184131316005L1320.2396139996845 500.27434131316005L1313.3229473330175 515.1076746464935ZM1395.531280666351 480.4618413131601L1395.531280666351 480.4618413131601Q1386.8229473330175 480.4618413131601 1380.3021139996845 478.6701746464934Q1373.781280666351 476.8576746464934 1369.4271139996845 472.3576746464934Q1365.0729473330175 467.8576746464934 1362.9896139996845 459.8368413131601Q1360.8854473330175 451.81600797982674 1360.8854473330175 439.3576746464934L1360.8854473330175 439.3576746464934Q1360.8854473330175 426.7743413131601 1362.9896139996845 418.7326746464934Q1365.0729473330175 410.7118413131601 1369.4271139996845 406.2951746464934Q1373.781280666351 401.8576746464934 1380.3021139996845 400.1493413131601Q1386.8229473330175 398.4201746464934 1395.531280666351 398.4201746464934L1395.531280666351 398.4201746464934Q1404.2396139996845 398.4201746464934 1410.7604473330175 400.21184131316005Q1417.281280666351 402.0243413131601 1421.635447333018 406.44100797982674Q1425.9896139996845 410.8576746464934 1428.156280666351 418.8993413131601Q1430.322947333018 426.9201746464934 1430.322947333018 439.3576746464934L1430.322947333018 439.3576746464934Q1430.322947333018 451.9618413131601 1428.156280666351 459.9826746464934Q1425.9896139996845 468.0243413131601 1421.6979473330175 472.44100797982674Q1417.4271139996845 476.8576746464934 1410.822947333018 478.6701746464934Q1404.2396139996845 480.4618413131601 1395.531280666351 480.4618413131601ZM1395.531280666351 470.7118413131601L1395.531280666351 470.7118413131601Q1401.072947333018 470.7118413131601 1405.3646139996845 469.6701746464934Q1409.635447333018 468.6076746464934 1412.4896139996845 465.4618413131601Q1415.3229473330175 462.31600797982674 1416.822947333018 456.0243413131601Q1418.3229473330175 449.7118413131601 1418.3229473330175 439.3576746464934L1418.3229473330175 439.3576746464934Q1418.3229473330175 428.8576746464934 1416.822947333018 422.7118413131601Q1415.3229473330175 416.5660079798268 1412.4896139996845 413.4201746464934Q1409.635447333018 410.2743413131601 1405.3646139996845 409.21184131316005Q1401.072947333018 408.1701746464934 1395.531280666351 408.1701746464934L1395.531280666351 408.1701746464934Q1389.8229473330175 408.1701746464934 1385.6354473330175 409.21184131316005Q1381.4271139996845 410.2743413131601 1378.5729473330175 413.4201746464934Q1375.7396139996845 416.5660079798268 1374.2396139996845 422.7118413131601Q1372.7396139996845 428.8576746464934 1372.7396139996845 439.3576746464934L1372.7396139996845 439.3576746464934Q1372.7396139996845 449.7118413131601 1374.2396139996845 456.0243413131601Q1375.7396139996845 462.31600797982674 1378.5729473330175 465.4618413131601Q1381.4271139996845 468.6076746464934 1385.6354473330175 469.6701746464934Q1389.8229473330175 470.7118413131601 1395.531280666351 470.7118413131601ZM1462.135447333018 515.1076746464935L1450.281280666351 515.1076746464935L1450.281280666351 399.46184131316005L1459.885447333018 399.46184131316005L1462.135447333018 407.71184131316005Q1464.8229473330175 405.77434131316005 1469.1146139996845 403.5868413131601Q1473.3854473330175 401.4201746464934 1478.406280666351 399.9201746464934Q1483.4271139996845 398.4201746464934 1488.3854473330175 398.4201746464934L1488.3854473330175 398.4201746464934Q1496.1771139996845 398.4201746464934 1501.656280666351 401.7951746464934Q1507.1354473330175 405.1701746464934 1510.572947333018 410.8576746464934Q1514.031280666351 416.5660079798268 1515.531280666351 423.9201746464934Q1517.031280666351 431.2743413131601 1517.031280666351 439.3576746464934L1517.031280666351 439.3576746464934Q1517.031280666351 452.8576746464934 1513.947947333018 462.0868413131601Q1510.8854473330175 471.31600797982674 1504.572947333018 475.9618413131601Q1498.281280666351 480.6076746464934 1488.3854473330175 480.6076746464934L1488.3854473330175 480.6076746464934Q1481.635447333018 480.6076746464934 1474.8021139996845 478.44100797982674Q1467.9896139996845 476.2743413131601 1462.135447333018 472.9618413131601L1462.135447333018 472.9618413131601L1462.135447333018 515.1076746464935ZM1485.072947333018 470.56600797982674L1485.072947333018 470.56600797982674Q1490.781280666351 470.56600797982674 1495.281280666351 467.7118413131601Q1499.781280666351 464.8576746464934 1502.4896139996845 458.0451746464934Q1505.1771139996845 451.2118413131601 1505.1771139996845 439.3576746464934L1505.1771139996845 439.3576746464934Q1505.1771139996845 428.1076746464934 1502.3229473330175 421.2951746464934Q1499.4896139996845 414.4618413131601 1494.9896139996845 411.3993413131601Q1490.4896139996845 408.31600797982674 1485.072947333018 408.31600797982674L1485.072947333018 408.31600797982674Q1478.1771139996845 408.31600797982674 1472.406280666351 410.4826746464934Q1466.6354473330175 412.6701746464934 1462.135447333018 415.06600797982674L1462.135447333018 415.06600797982674L1462.135447333018 464.1076746464934Q1467.3854473330175 466.9618413131601 1473.3021139996845 468.7743413131601Q1479.2396139996845 470.56600797982674 1485.072947333018 470.56600797982674ZM1568.781280666351 480.4618413131601L1568.781280666351 480.4618413131601Q1560.072947333018 480.4618413131601 1553.5521139996845 478.6701746464934Q1547.031280666351 476.8576746464934 1542.6771139996845 472.3576746464934Q1538.322947333018 467.8576746464934 1536.2396139996845 459.8368413131601Q1534.135447333018 451.81600797982674 1534.135447333018 439.3576746464934L1534.135447333018 439.3576746464934Q1534.135447333018 426.7743413131601 1536.2396139996845 418.7326746464934Q1538.322947333018 410.7118413131601 1542.6771139996845 406.2951746464934Q1547.031280666351 401.8576746464934 1553.5521139996845 400.1493413131601Q1560.072947333018 398.4201746464934 1568.781280666351 398.4201746464934L1568.781280666351 398.4201746464934Q1577.4896139996845 398.4201746464934 1584.010447333018 400.21184131316005Q1590.531280666351 402.0243413131601 1594.8854473330175 406.44100797982674Q1599.2396139996845 410.8576746464934 1601.406280666351 418.8993413131601Q1603.5729473330175 426.9201746464934 1603.5729473330175 439.3576746464934L1603.5729473330175 439.3576746464934Q1603.5729473330175 451.9618413131601 1601.406280666351 459.9826746464934Q1599.2396139996845 468.0243413131601 1594.947947333018 472.44100797982674Q1590.6771139996845 476.8576746464934 1584.0729473330175 478.6701746464934Q1577.4896139996845 480.4618413131601 1568.781280666351 480.4618413131601ZM1568.781280666351 470.7118413131601L1568.781280666351 470.7118413131601Q1574.3229473330175 470.7118413131601 1578.6146139996845 469.6701746464934Q1582.8854473330175 468.6076746464934 1585.7396139996845 465.4618413131601Q1588.572947333018 462.31600797982674 1590.0729473330175 456.0243413131601Q1591.572947333018 449.7118413131601 1591.572947333018 439.3576746464934L1591.572947333018 439.3576746464934Q1591.572947333018 428.8576746464934 1590.0729473330175 422.7118413131601Q1588.572947333018 416.5660079798268 1585.7396139996845 413.4201746464934Q1582.8854473330175 410.2743413131601 1578.6146139996845 409.21184131316005Q1574.3229473330175 408.1701746464934 1568.781280666351 408.1701746464934L1568.781280666351 408.1701746464934Q1563.072947333018 408.1701746464934 1558.885447333018 409.21184131316005Q1554.6771139996845 410.2743413131601 1551.822947333018 413.4201746464934Q1548.9896139996845 416.5660079798268 1547.4896139996845 422.7118413131601Q1545.9896139996845 428.8576746464934 1545.9896139996845 439.3576746464934L1545.9896139996845 439.3576746464934Q1545.9896139996845 449.7118413131601 1547.4896139996845 456.0243413131601Q1548.9896139996845 462.31600797982674 1551.822947333018 465.4618413131601Q1554.6771139996845 468.6076746464934 1558.885447333018 469.6701746464934Q1563.072947333018 470.7118413131601 1568.781280666351 470.7118413131601ZM1654.7396139996845 479.7118413131601L1644.531280666351 479.7118413131601Q1637.635447333018 479.7118413131601 1632.9896139996845 477.2326746464934Q1628.3229473330175 474.7743413131601 1625.9271139996845 469.1493413131601Q1623.531280666351 463.5243413131601 1623.531280666351 453.9201746464934L1623.531280666351 453.9201746464934L1623.531280666351 365.1076746464934L1635.3854473330175 365.1076746464934L1635.3854473330175 452.4201746464934Q1635.3854473330175 459.6076746464934 1636.7396139996845 463.2951746464934Q1638.072947333018 466.9618413131601 1640.635447333018 468.3993413131601Q1643.1771139996845 469.81600797982674 1646.635447333018 470.2743413131601L1646.635447333018 470.2743413131601L1654.7396139996845 471.1701746464934L1654.7396139996845 479.7118413131601ZM1677.8229473330175 385.2118413131601L1669.4271139996845 385.2118413131601Q1667.031280666351 385.2118413131601 1667.031280666351 382.8160079798268L1667.031280666351 382.8160079798268L1667.031280666351 371.1076746464934Q1667.031280666351 368.71184131316005 1669.4271139996845 368.71184131316005L1669.4271139996845 368.71184131316005L1677.8229473330175 368.71184131316005Q1679.031280666351 368.71184131316005 1679.5521139996845 369.39934131316005Q1680.072947333018 370.06600797982674 1680.072947333018 371.1076746464934L1680.072947333018 371.1076746464934L1680.072947333018 382.8160079798268Q1680.072947333018 385.2118413131601 1677.8229473330175 385.2118413131601L1677.8229473330175 385.2118413131601ZM1679.4896139996845 479.56600797982674L1667.635447333018 479.56600797982674L1667.635447333018 399.46184131316005L1679.4896139996845 399.46184131316005L1679.4896139996845 479.56600797982674ZM1729.8854473330175 480.4618413131601L1729.8854473330175 480.4618413131601Q1726.885447333018 480.4618413131601 1722.531280666351 480.31600797982674Q1718.1771139996845 480.1701746464934 1713.4479473330175 479.8576746464934Q1708.7396139996845 479.56600797982674 1704.906280666351 479.19100797982674Q1701.0729473330175 478.81600797982674 1698.9896139996845 478.3576746464934L1698.9896139996845 478.3576746464934L1698.9896139996845 471.1701746464934L1731.822947333018 471.1701746464934Q1736.781280666351 471.1701746464934 1740.3854473330175 470.4201746464934Q1743.9896139996845 469.6701746464934 1746.0104473330175 467.1076746464934Q1748.031280666351 464.56600797982674 1748.031280666351 459.4618413131601L1748.031280666351 459.4618413131601L1748.031280666351 455.8576746464934Q1748.031280666351 450.6076746464934 1744.5729473330175 447.69100797982674Q1741.1354473330175 444.7743413131601 1733.4896139996845 444.7743413131601L1733.4896139996845 444.7743413131601L1722.2396139996845 444.7743413131601Q1715.1771139996845 444.7743413131601 1709.6979473330175 442.9618413131601Q1704.2396139996845 441.1701746464934 1701.2396139996845 436.8160079798268Q1698.2396139996845 432.4618413131601 1698.2396139996845 424.81600797982674L1698.2396139996845 424.81600797982674L1698.2396139996845 420.6076746464934Q1698.2396139996845 413.1076746464934 1701.156280666351 408.31600797982674Q1704.0729473330175 403.5243413131601 1710.3021139996845 401.1076746464934Q1716.531280666351 398.71184131316005 1726.4271139996845 398.71184131316005L1726.4271139996845 398.71184131316005Q1730.6354473330175 398.71184131316005 1736.1146139996845 399.0243413131601Q1741.5729473330175 399.31600797982674 1746.8229473330175 399.83684131316005Q1752.0729473330175 400.3576746464934 1755.3854473330175 400.9618413131601L1755.3854473330175 400.9618413131601L1755.3854473330175 408.1701746464934L1724.4896139996845 408.1701746464934Q1716.8229473330175 408.1701746464934 1712.6979473330175 410.7118413131601Q1708.5729473330175 413.2743413131601 1708.5729473330175 420.6076746464934L1708.5729473330175 420.6076746464934L1708.5729473330175 423.9201746464934Q1708.5729473330175 428.56600797982674 1710.531280666351 430.8993413131601Q1712.4896139996845 433.2118413131601 1716.010447333018 433.9618413131601Q1719.531280666351 434.7118413131601 1724.1771139996845 434.7118413131601L1724.1771139996845 434.7118413131601L1735.5729473330175 434.7118413131601Q1746.531280666351 434.7118413131601 1752.531280666351 439.81600797982674Q1758.531280666351 444.9201746464934 1758.531280666351 454.5243413131601L1758.531280666351 454.5243413131601L1758.531280666351 460.06600797982674Q1758.531280666351 468.1701746464934 1754.8646139996845 472.5868413131601Q1751.1771139996845 477.0243413131601 1744.8021139996845 478.7326746464934Q1738.4271139996845 480.4618413131601 1729.8854473330175 480.4618413131601Z " fill="#ddc6b6" transform="matrix(0.49757426442577557,0,0,0.49757426442577557,0,81.01374796505584)"/></g></svg>